<?xml version="1.0" encoding="UTF-8"?>
<!DOCTYPE svg PUBLIC "-//W3C//DTD SVG 1.1//EN" "http://www.w3.org/Graphics/SVG/1.1/DTD/svg11.dtd">
<svg xmlns="http://www.w3.org/2000/svg" version="1.1" width="48px" height="48px" style="shape-rendering:geometricPrecision; text-rendering:geometricPrecision; image-rendering:optimizeQuality; fill-rule:evenodd; clip-rule:evenodd" xmlns:xlink="http://www.w3.org/1999/xlink">
<g><path style="opacity:1" fill="#60ad57" d="M 22.5,1.5 C 23.7856,14.3597 23.7856,27.3597 22.5,40.5C 22.5,40.8333 22.5,41.1667 22.5,41.5C 15.8044,37.1161 12.4711,30.7828 12.5,22.5C 12.3882,13.7278 15.7215,6.72776 22.5,1.5 Z"/></g>
<g><path style="opacity:1" fill="#52a152" d="M 27.5,5.5 C 32.425,10.1984 34.7583,16.0318 34.5,23C 34.9143,30.3326 32.2477,36.1659 26.5,40.5C 25.5084,40.6716 24.8417,40.3382 24.5,39.5C 24.3335,27.4954 24.5001,15.4954 25,3.5C 25.7083,4.38053 26.5416,5.0472 27.5,5.5 Z"/></g>
<g><path style="opacity:1" fill="#7db97a" d="M 22.5,-0.5 C 23.1667,-0.5 23.8333,-0.5 24.5,-0.5C 25.5,1.5 26.5,3.5 27.5,5.5C 26.5416,5.0472 25.7083,4.38053 25,3.5C 24.5001,15.4954 24.3335,27.4954 24.5,39.5C 23.8333,39.8333 23.1667,40.1667 22.5,40.5C 23.7856,27.3597 23.7856,14.3597 22.5,1.5C 22.5,0.833333 22.5,0.166667 22.5,-0.5 Z"/></g>
<g><path style="opacity:1" fill="#b6b99e" d="M 24.5,39.5 C 24.8417,40.3382 25.5084,40.6716 26.5,40.5C 25.6314,42.717 25.298,45.0504 25.5,47.5C 24.5,47.5 23.5,47.5 22.5,47.5C 22.5,45.5 22.5,43.5 22.5,41.5C 22.5,41.1667 22.5,40.8333 22.5,40.5C 23.1667,40.1667 23.8333,39.8333 24.5,39.5 Z"/></g>
</svg>
